<svg xmlns="http://www.w3.org/2000/svg" width="215" height="40" viewBox="0 0 215 40" fill="none">
<path d="M26.0962 18.1745C26.032 18.3037 25.9678 18.433 25.9036 18.5622C25.8394 18.6591 25.7913 18.7722 25.7592 18.9015C25.8876 19.0307 25.9999 19.1761 26.0962 19.3376C26.2246 19.4669 26.2888 19.6123 26.2888 19.7738C26.2888 19.9031 26.2567 20.0323 26.1925 20.1616C26.1604 20.2585 26.1604 20.3554 26.1925 20.4523C26.0641 20.6785 25.9197 20.8885 25.7592 21.0824C25.6308 21.2763 25.5345 21.4863 25.4703 21.7124C25.3419 21.8417 25.2295 21.9709 25.1332 22.1002C25.069 22.2294 25.0049 22.3586 24.9407 22.4879C24.7802 22.5525 24.6678 22.6656 24.6036 22.8271C24.5715 22.9564 24.4913 23.0695 24.3629 23.1664C24.3308 23.2956 24.1703 23.6026 23.8814 24.0872C23.5925 24.5719 23.2715 25.0889 22.9184 25.6381C22.5654 26.1874 22.2283 26.7205 21.9073 27.2375C21.5863 27.7544 21.3617 28.0937 21.2333 28.2552C21.1691 28.4168 21.0888 28.546 20.9925 28.643C20.9283 28.7399 20.8481 28.853 20.7518 28.9822C20.6876 29.0792 20.6394 29.1922 20.6073 29.3215C20.5752 29.4184 20.5271 29.4992 20.4629 29.5638C20.3987 29.6931 20.3184 29.8061 20.2222 29.9031C20.158 30 20.0938 30.1292 20.0296 30.2908C19.7086 30.7108 19.3876 31.2116 19.0666 31.7932C18.7456 32.3748 18.4407 32.8918 18.1518 33.3441C17.9913 33.6026 17.8308 33.8611 17.6703 34.1195C17.5419 34.378 17.3975 34.6365 17.237 34.895C17.0765 35.1535 16.916 35.3958 16.7555 35.622C16.595 35.8481 16.4345 36.0905 16.274 36.3489C16.0172 36.5428 15.7925 36.7851 15.5999 37.0759C15.4074 37.3344 15.1827 37.5606 14.9259 37.7544C14.5086 37.7544 14.2518 37.5606 14.1555 37.1729C13.7382 37.0759 13.5296 37.0759 13.5296 37.1729C13.5296 37.2698 13.5296 37.3506 13.5296 37.4152C13.4012 37.4798 13.3049 37.5767 13.2407 37.706C13.2086 37.8352 13.1283 37.9321 13 37.9968C12.7432 37.9321 12.5185 37.8191 12.3259 37.6575C12.1654 37.5283 11.9247 37.4798 11.6037 37.5121C11.4753 37.3183 11.3308 37.1567 11.1703 37.0275C11.0098 36.8659 10.8654 36.7044 10.737 36.5428C10.6728 36.3489 10.5765 36.1874 10.4481 36.0582C10.3518 35.9289 10.2555 35.7997 10.1592 35.6704C10.0629 35.5089 9.96663 35.3635 9.87034 35.2342C9.77404 35.105 9.67774 34.9758 9.58145 34.8465C9.35676 34.5557 9.13207 34.2811 8.90738 34.0226C8.71478 33.7318 8.53824 33.441 8.37775 33.1502C8.12096 32.7625 7.86417 32.3748 7.60738 31.9871C7.38269 31.567 7.14195 31.1632 6.88516 30.7754C6.75677 30.5816 6.62837 30.3877 6.49998 30.1939C6.37158 30 6.25924 29.8061 6.16294 29.6123C6.09874 29.4507 6.00245 29.2569 5.87405 29.0307C5.77776 28.8045 5.64936 28.6591 5.48887 28.5945C5.42467 28.336 5.31233 28.1422 5.15183 28.0129C4.99134 27.8837 4.83085 27.7221 4.67035 27.5283C4.44566 27.2698 4.23702 26.9952 4.04443 26.7044C3.85184 26.3813 3.65925 26.0582 3.46665 25.7351C2.82468 24.8304 2.21481 23.9418 1.63703 23.0695C1.09135 22.1971 0.545677 21.2924 0 20.3554C0.160493 19.8384 0.24074 19.4507 0.24074 19.1922C0.24074 18.9338 0.320987 18.7237 0.48148 18.5622C0.48148 18.433 0.513578 18.2391 0.577776 17.9806C0.995058 17.2698 1.39629 16.6236 1.78148 16.042C2.13456 15.4927 2.3753 15.0404 2.5037 14.685C2.66419 14.3296 2.82468 13.958 2.98517 13.5703C3.14567 13.4733 3.27406 13.3603 3.37036 13.231C3.46665 13.0695 3.59505 12.9241 3.75554 12.7948C3.81974 12.4394 3.96418 12.1486 4.18887 11.9225C4.41357 11.664 4.55801 11.357 4.62221 11.0016C4.91109 10.7754 5.07159 10.517 5.10369 10.2262C5.52097 9.93538 5.77776 9.54766 5.87405 9.063C6.13084 8.80452 6.33948 8.51373 6.49998 8.19063C6.69257 7.86753 6.86911 7.52827 7.02961 7.17286C7.41479 6.84976 7.71973 6.42973 7.94442 5.91276C8.13701 5.78352 8.28145 5.60582 8.37775 5.37964C8.47404 5.15347 8.60244 4.95961 8.76293 4.79806C9.01972 4.37803 9.21231 4.03877 9.34071 3.78029C9.5012 3.4895 9.6617 3.19871 9.82219 2.90792C10.0469 2.90792 10.1913 2.82714 10.2555 2.66559C10.3197 2.50404 10.4481 2.43942 10.6407 2.47173C10.6407 2.18094 10.721 1.92246 10.8814 1.69628C10.9456 1.66397 11.0419 1.63166 11.1703 1.59935C11.2987 1.53473 11.3629 1.47011 11.3629 1.40549C11.2987 1.01777 11.3148 0.791599 11.4111 0.726979C11.5074 0.662359 11.5876 0.597738 11.6518 0.533118C12.0049 0.597738 12.2456 0.646204 12.374 0.678514C12.5024 0.710824 12.7111 0.82391 13 1.01777C13.3209 1.01777 13.5456 1.08239 13.674 1.21163C13.8024 1.34087 13.9469 1.4378 14.1074 1.50242C14.2358 1.63166 14.332 1.7609 14.3962 1.89015C14.4925 2.01939 14.6209 2.11632 14.7814 2.18094C15.0382 2.53635 15.3111 2.92407 15.5999 3.3441C15.8888 3.76414 16.1617 4.15186 16.4185 4.50727C16.7715 4.99192 17.1246 5.46042 17.4777 5.91276C17.8629 6.33279 18.216 6.80129 18.537 7.31825C18.6333 7.47981 18.8098 7.7706 19.0666 8.19063C19.3234 8.57835 19.6123 8.99838 19.9333 9.45073C20.2543 9.90307 20.5431 10.3231 20.7999 10.7108C21.0567 11.0662 21.2333 11.2763 21.3296 11.3409C21.4259 11.5024 21.6345 11.8094 21.9555 12.2617C22.2765 12.7141 22.6135 13.1987 22.9666 13.7157C23.3518 14.2003 23.7209 14.6688 24.074 15.1212C24.4271 15.5735 24.6678 15.8643 24.7962 15.9935C25.1493 16.4782 25.4061 16.8821 25.5666 17.2052C25.7592 17.496 25.9357 17.8191 26.0962 18.1745ZM15.0703 27.2859C15.4234 26.8013 15.6962 26.3651 15.8888 25.9774C16.0814 25.5897 16.274 25.2019 16.4666 24.8142C16.7876 24.4265 16.9802 24.1519 17.0444 23.9903C17.1086 23.8288 17.1888 23.6672 17.2851 23.5057C17.5419 23.1179 17.7987 22.7302 18.0555 22.3425C18.3444 21.9548 18.5691 21.5347 18.7296 21.0824C18.9222 20.9531 19.0666 20.7916 19.1629 20.5977C19.2592 20.4039 19.4036 20.2262 19.5962 20.0646C19.4036 19.3861 19.1789 18.8691 18.9222 18.5137C18.6654 18.126 18.4086 17.7544 18.1518 17.399C18.0555 17.2375 17.9592 17.0759 17.8629 16.9144C17.7666 16.7528 17.6703 16.5913 17.574 16.4297C17.4456 16.3328 17.3333 16.2359 17.237 16.1389C17.1728 16.042 17.0925 15.9451 16.9962 15.8481C16.932 15.6866 16.8357 15.4766 16.7073 15.2181C16.579 15.0565 16.4506 14.9111 16.3222 14.7819C16.1938 14.6527 16.0814 14.4911 15.9851 14.2973C15.8567 14.168 15.6962 13.9903 15.5037 13.7641C15.3111 13.538 15.1024 13.2956 14.8777 13.0372C14.6851 12.7464 14.5086 12.4879 14.3481 12.2617C14.1876 12.0032 14.0592 11.7932 13.9629 11.6317C13.8987 11.4701 13.8345 11.3409 13.7703 11.2439C13.7382 11.1147 13.6901 10.9855 13.6259 10.8562C13.4654 10.63 13.3049 10.4362 13.1444 10.2746C12.9839 10.0808 12.8234 9.87076 12.6629 9.64459C12.5666 9.70921 12.4703 9.75767 12.374 9.78998C12.3098 9.78998 12.2456 9.82229 12.1814 9.88691C11.9567 10.3069 11.7 10.6947 11.4111 11.0501C11.1543 11.4055 10.8975 11.7932 10.6407 12.2132C10.416 12.601 10.1913 13.0048 9.96663 13.4249C9.74194 13.8126 9.51725 14.2003 9.29256 14.588C9.13207 14.8142 8.97157 15.0404 8.81108 15.2666C8.68269 15.4604 8.53824 15.6866 8.37775 15.9451C8.21726 16.1712 8.07281 16.4136 7.94442 16.6721C7.84812 16.8982 7.71973 17.1244 7.55923 17.3506C7.30244 17.6737 7.0938 17.9645 6.93331 18.2229C6.77282 18.4814 6.61232 18.7884 6.45183 19.1438C6.54813 19.3376 6.69257 19.6123 6.88516 19.9677C7.10985 20.2908 7.33454 20.63 7.55923 20.9855C7.78392 21.3086 7.97652 21.6155 8.13701 21.9063C8.3296 22.1971 8.44195 22.391 8.47404 22.4879C8.73083 22.7141 8.93948 22.9725 9.09997 23.2633C9.26046 23.5218 9.4691 23.7803 9.72589 24.0388C9.85429 24.2973 9.99873 24.5234 10.1592 24.7173C10.3197 24.9111 10.4802 25.1212 10.6407 25.3473C10.8012 25.5735 11.0098 25.9128 11.2666 26.3651C11.5234 26.7851 11.7802 27.2213 12.037 27.6737C12.2938 28.126 12.5506 28.546 12.8074 28.9338C13.0642 29.3215 13.2728 29.5638 13.4333 29.6607C13.7543 29.3053 14.0111 28.9176 14.2037 28.4976C14.4283 28.0452 14.7172 27.6414 15.0703 27.2859Z" fill="white"/>
<path d="M65.1539 37.2698C64.9934 37.4313 64.8168 37.5283 64.6242 37.5606C64.4316 37.5929 64.239 37.609 64.0464 37.609C63.565 37.8352 63.0514 37.9483 62.5057 37.9483C62.1526 37.7544 61.96 37.6898 61.9279 37.7544C61.8958 37.8191 61.8316 37.8837 61.7353 37.9483C61.2539 38.1745 60.8205 38.2876 60.4353 38.2876C60.0502 38.3199 59.7292 38.4168 59.4724 38.5784C59.2156 38.3845 59.0712 38.0937 59.0391 37.706C59.0391 37.3506 59.007 37.0436 58.9428 36.7851C58.7823 36.559 58.6699 36.2843 58.6057 35.9612C58.5415 35.6058 58.4934 35.2504 58.4613 34.895C58.4292 34.5396 58.381 34.2003 58.3168 33.8772C58.2847 33.5218 58.2045 33.2149 58.0761 32.9564C58.044 32.7948 58.028 32.6494 58.028 32.5202C58.06 32.391 58.044 32.2456 57.9798 32.084C58.0119 31.5347 57.9958 31.0985 57.9317 30.7754C57.8675 30.4523 57.8033 30.1131 57.7391 29.7577C57.707 29.5638 57.6909 29.3538 57.6909 29.1276C57.6909 28.8691 57.5946 28.6753 57.402 28.546C57.4983 28.0937 57.5144 27.7544 57.4502 27.5283C57.386 27.3021 57.3378 27.0921 57.3057 26.8982C57.2736 26.6397 57.2576 26.3651 57.2576 26.0743C57.2576 25.7512 57.2255 25.4604 57.1613 25.2019C56.9687 23.651 56.7601 22.1002 56.5354 20.5493C56.3107 18.9984 56.102 17.4475 55.9094 15.8966C55.7168 16.0582 55.5724 16.3005 55.4761 16.6236C55.4119 16.9467 55.3477 17.2375 55.2835 17.496C55.0909 18.0775 54.9144 18.6753 54.7539 19.2892C54.5934 19.9031 54.4329 20.5008 54.2724 21.0824C54.2082 21.3409 54.144 21.6478 54.0798 22.0032C54.0477 22.3263 53.9835 22.6171 53.8872 22.8756C53.5662 23.8126 53.2773 24.6204 53.0206 25.2989C52.7959 25.9774 52.5712 26.6721 52.3465 27.3829C52.2823 27.7706 52.2181 28.1422 52.1539 28.4976C52.0897 28.853 52.0255 29.2084 51.9613 29.5638C51.9292 29.7577 51.8811 30.0323 51.8169 30.3877C51.7527 30.7431 51.6885 31.0016 51.6243 31.1632C51.5601 31.3247 51.4959 31.4378 51.4317 31.5024C51.3996 31.567 51.3996 31.6801 51.4317 31.8417C51.1107 32.3263 50.886 32.8595 50.7576 33.441C50.6613 34.0226 50.4687 34.588 50.1798 35.1373C50.1798 35.525 50.0354 35.8643 49.7465 36.1551C49.586 36.1874 49.4255 36.2197 49.265 36.252C49.1366 36.2843 48.9922 36.3489 48.8317 36.4459C48.6712 36.3813 48.4786 36.3489 48.2539 36.3489C48.0613 36.3166 47.8687 36.3005 47.6761 36.3005C47.5156 36.2682 47.3712 36.2197 47.2428 36.1551C47.1144 36.0582 46.97 35.9935 46.8095 35.9612C46.649 35.7674 46.4724 35.6058 46.2798 35.4766C46.0872 35.315 45.8947 35.1535 45.7021 34.9919C45.5095 34.5073 45.3329 34.1842 45.1724 34.0226C45.0761 33.6672 44.9477 33.3441 44.7873 33.0533C44.6268 32.7302 44.5144 32.3748 44.4502 31.9871C44.3539 31.6317 44.2255 31.3086 44.065 31.0178C43.9366 30.6947 43.7922 30.3554 43.6317 30C43.5675 29.7738 43.4873 29.5638 43.391 29.37C43.3268 29.1438 43.2465 28.9176 43.1502 28.6914C43.1181 28.433 43.0218 28.1099 42.8613 27.7221C42.7329 27.3344 42.6366 26.9952 42.5724 26.7044C42.5724 26.6721 42.5083 26.5105 42.3799 26.2197C42.2836 25.8966 42.1712 25.5574 42.0428 25.2019C41.9465 24.8465 41.8342 24.5234 41.7058 24.2326C41.6095 23.9418 41.5453 23.7803 41.5132 23.748C41.449 23.5864 41.3848 23.441 41.3206 23.3118C41.2885 23.1502 41.2404 22.9725 41.1762 22.7787C41.0478 22.3586 40.8873 21.9386 40.6947 21.5186C40.5021 21.0662 40.3095 20.6462 40.1169 20.2585C39.9564 19.9354 39.8441 19.6284 39.7799 19.3376C39.7157 19.0145 39.6354 18.7076 39.5391 18.4168C39.4749 18.2552 39.4107 18.1099 39.3465 17.9806C39.3144 17.8514 39.2663 17.706 39.2021 17.5444C39.1379 17.3506 39.0737 17.1567 39.0095 16.9628C38.9453 16.7367 38.8811 16.5105 38.8169 16.2843C38.6564 16.3489 38.5762 16.4943 38.5762 16.7205C38.6083 16.9144 38.6083 17.0921 38.5762 17.2536C38.512 17.609 38.4799 17.9645 38.4799 18.3199C38.4799 18.643 38.4638 18.9822 38.4317 19.3376C38.3675 19.7254 38.3033 20.0969 38.2391 20.4523C38.1749 20.8078 38.1268 21.1632 38.0947 21.5186C38.0947 22.391 38.0465 23.2633 37.9502 24.1357C37.886 24.9111 37.8058 25.7027 37.7095 26.5105C37.6132 27.2859 37.549 28.0937 37.5169 28.9338C37.5169 29.5477 37.4527 30.1616 37.3243 30.7754C37.1959 31.357 37.1638 31.9709 37.228 32.6171C37.1638 32.7464 37.1317 32.8433 37.1317 32.9079C37.1317 32.9725 37.1317 33.0695 37.1317 33.1987C37.1317 33.3603 37.1157 33.538 37.0836 33.7318C37.0836 33.9257 37.0836 34.1034 37.0836 34.2649C37.0836 34.5557 37.1157 34.7496 37.1799 34.8465C37.0836 35.1373 37.0354 35.4604 37.0354 35.8158C37.0354 36.1389 37.0354 36.462 37.0354 36.7851C36.9712 36.9144 36.9231 37.0436 36.891 37.1729C36.891 37.3021 36.8428 37.4313 36.7465 37.5606C36.7786 38.1099 36.6181 38.3845 36.2651 38.3845C36.1688 38.3845 36.0564 38.3522 35.928 38.2876C35.8317 38.2552 35.7515 38.1906 35.6873 38.0937C35.3342 38.126 35.1256 38.0452 35.0614 37.8514C35.0293 37.6575 34.933 37.5767 34.7725 37.609C34.3873 37.7706 34.1626 37.8191 34.0984 37.7544C34.0663 37.6898 33.97 37.6737 33.8095 37.706C33.5527 37.4475 33.3762 37.3344 33.2799 37.3667C33.2157 37.399 33.1515 37.4152 33.0873 37.4152C32.7984 37.3183 32.6379 37.3021 32.6058 37.3667C32.5737 37.399 32.5095 37.4152 32.4132 37.4152C32.2527 37.2536 32.028 37.1729 31.7391 37.1729C31.4824 37.1729 31.2577 37.1567 31.0651 37.1244C31.033 36.9952 31.0009 36.8821 30.9688 36.7851C30.9688 36.6559 30.9688 36.5105 30.9688 36.3489C30.9688 36.1551 30.9688 35.9774 30.9688 35.8158C31.0009 35.622 31.0169 35.4281 31.0169 35.2342C31.0169 35.0727 31.0009 34.9111 30.9688 34.7496C30.9688 34.5557 30.9688 34.3457 30.9688 34.1195C30.9688 33.8934 30.9848 33.6834 31.0169 33.4895C31.049 33.2633 31.0651 33.021 31.0651 32.7625C31.0651 32.6656 31.049 32.5848 31.0169 32.5202C30.9848 32.4233 30.9688 32.3102 30.9688 32.1809C31.1614 31.7609 31.2416 31.4378 31.2095 31.2116C31.2095 30.9531 31.2256 30.7108 31.2577 30.4847C31.3219 29.9354 31.37 29.4023 31.4021 28.8853C31.4663 28.336 31.5305 27.7868 31.5947 27.2375C31.5947 26.3328 31.6108 25.5897 31.6429 25.0081C31.7071 24.3942 31.7873 23.7803 31.8836 23.1664C31.9478 22.8756 31.9959 22.601 32.028 22.3425C32.0922 22.084 32.1564 21.8094 32.2206 21.5186C32.2848 21.0339 32.3169 20.5331 32.3169 20.0162C32.349 19.4669 32.3972 18.9338 32.4614 18.4168C32.5256 17.609 32.6058 16.8174 32.7021 16.042C32.7984 15.2342 32.8787 14.4426 32.9429 13.6672C33.007 13.0533 33.0712 12.4556 33.1354 11.874C33.2317 11.2601 33.2799 10.6785 33.2799 10.1292C33.2799 9.83845 33.312 9.46688 33.3762 9.01454C33.4725 8.5622 33.5367 8.17447 33.5688 7.85137C33.633 7.07593 33.6811 6.31664 33.7132 5.57351C33.7774 4.83037 33.8095 4.08724 33.8095 3.3441V2.81099C33.8095 2.74637 33.8416 2.68174 33.9058 2.61712C33.97 2.5525 34.0021 2.43942 34.0021 2.27787C34.0021 1.98708 34.0663 1.79321 34.1947 1.69628C34.3552 1.56704 34.4836 1.37318 34.5799 1.1147C34.7404 1.1147 34.9169 1.13086 35.1095 1.16317C35.3342 1.19548 35.4947 1.29241 35.591 1.45396C35.8157 1.38934 36.0404 1.35703 36.2651 1.35703C36.4898 1.35703 36.6823 1.27625 36.8428 1.1147C37.0354 1.1147 37.1799 1.16317 37.2762 1.2601C37.3725 1.35703 37.5009 1.4378 37.6614 1.50242C37.7897 1.4378 37.9181 1.38934 38.0465 1.35703C38.1749 1.29241 38.3033 1.22779 38.4317 1.16317C38.528 1.22779 38.5922 1.30856 38.6243 1.40549C38.6885 1.47011 38.7688 1.51858 38.8651 1.55089C39.3465 1.42165 39.6675 1.40549 39.828 1.50242C39.8922 1.63166 39.9243 1.7609 39.9243 1.89015C39.9564 2.01939 39.9885 2.14863 40.0206 2.27787C40.3416 2.60097 40.5502 2.97254 40.6465 3.39257C40.7428 3.78029 40.9194 4.1357 41.1762 4.4588C41.2404 4.65267 41.3046 4.84653 41.3687 5.04039C41.465 5.23425 41.5453 5.46042 41.6095 5.7189L41.7539 6.30048C41.8823 6.62359 42.0428 7.01131 42.2354 7.46365C42.3959 8.07754 42.5403 8.70759 42.6687 9.3538C42.7971 10 43.0058 10.5977 43.2947 11.147C43.3268 11.3409 43.3749 11.5832 43.4391 11.874C43.5354 12.1325 43.6157 12.3586 43.6799 12.5525C43.9045 13.1018 44.1292 13.651 44.3539 14.2003C44.6107 14.7173 44.8354 15.2827 45.028 15.8966C45.2206 16.5105 45.3811 17.1405 45.5095 17.7868C45.67 18.433 45.8626 19.063 46.0872 19.6769C46.2798 20.2585 46.4243 20.6785 46.5206 20.937C46.6169 21.1955 46.7453 21.454 46.9058 21.7124C46.9058 21.8094 46.9218 21.9709 46.9539 22.1971C47.0181 22.4233 47.0984 22.6656 47.1947 22.9241C47.291 23.1502 47.3872 23.3764 47.4835 23.6026C47.5798 23.7964 47.6761 23.9095 47.7724 23.9418C47.8687 23.8772 47.9169 23.7803 47.9169 23.651C47.949 23.5218 48.0132 23.4087 48.1095 23.3118C48.1416 22.9564 48.1897 22.5202 48.2539 22.0032C48.3502 21.4863 48.4786 21.0662 48.6391 20.7431C48.6391 20.5816 48.6712 20.2908 48.7354 19.8708C48.8317 19.4184 48.944 18.9499 49.0724 18.4653C49.2008 17.9483 49.3132 17.4798 49.4095 17.0598C49.5379 16.6397 49.6502 16.3813 49.7465 16.2843C49.8107 15.8643 49.8588 15.6058 49.8909 15.5089C49.9551 15.412 50.0193 15.3312 50.0835 15.2666C50.1156 15.0081 50.1798 14.7658 50.2761 14.5396C50.3724 14.3134 50.4366 14.0711 50.4687 13.8126C50.5329 13.2633 50.6132 12.811 50.7095 12.4556C50.8058 12.1002 50.9341 11.664 51.0946 11.147C51.223 10.6947 51.3354 10.2423 51.4317 9.78998C51.5601 9.30533 51.7045 8.83683 51.865 8.38449C52.2502 7.1567 52.5872 6.07431 52.8761 5.13732C53.1971 4.16801 53.5823 3.23102 54.0317 2.32633C54.128 2.03554 54.2082 1.85784 54.2724 1.79321C54.3366 1.72859 54.4008 1.66397 54.465 1.59935C54.7218 1.50242 54.9786 1.45396 55.2354 1.45396C55.5243 1.45396 55.8131 1.47011 56.102 1.50242C56.423 1.37318 56.6638 1.22779 56.8242 1.06624C56.9526 1.22779 57.1452 1.30856 57.402 1.30856C57.723 1.30856 57.9477 1.21163 58.0761 1.01777C58.2045 1.08239 58.3008 1.09855 58.365 1.06624C58.4613 1.03393 58.5897 1.05008 58.7502 1.1147C58.8144 1.05008 58.8946 0.98546 58.9909 0.92084C59.0872 0.82391 59.1835 0.775444 59.2798 0.775444C59.5366 1.09855 59.7292 1.35703 59.8576 1.55089C60.0181 1.71244 60.1304 1.9063 60.1946 2.13247C60.2909 2.42326 60.3391 2.74637 60.3391 3.10178C60.3712 3.42488 60.4674 3.73183 60.6279 4.02262C60.5958 4.44265 60.6119 5.08885 60.6761 5.96123C60.7724 6.80129 60.8687 7.70598 60.965 8.67528C61.0934 9.61228 61.2218 10.4847 61.3502 11.2924C61.4786 12.1002 61.5909 12.601 61.6872 12.7948C61.6551 13.2149 61.6711 13.5703 61.7353 13.8611C61.7995 14.1519 61.8316 14.4426 61.8316 14.7334C61.8316 14.8304 61.8477 15.0404 61.8798 15.3635C61.9119 15.6543 61.944 15.9774 61.9761 16.3328C62.0082 16.6559 62.0403 16.979 62.0724 17.3021C62.1366 17.5929 62.1847 17.8029 62.2168 17.9321C62.2168 18.5137 62.3131 18.9661 62.5057 19.2892C62.6662 20.0969 62.7946 20.9047 62.8909 21.7124C63.0193 22.5202 63.1316 23.3441 63.2279 24.1842C63.2921 24.6042 63.3242 25.0081 63.3242 25.3958C63.3563 25.7835 63.4045 26.1874 63.4687 26.6074C63.5008 26.769 63.5329 26.9305 63.565 27.0921C63.6292 27.2536 63.6773 27.4152 63.7094 27.5767C63.7736 27.8998 63.8218 28.2068 63.8539 28.4976C63.886 28.7884 63.9341 29.0792 63.9983 29.37C64.0304 29.5315 64.0785 29.7092 64.1427 29.9031C64.2069 30.0646 64.2069 30.2423 64.1427 30.4362C64.2069 30.6624 64.223 30.9047 64.1909 31.1632C64.1909 31.4216 64.2551 31.6478 64.3835 31.8417C64.3835 32.5202 64.4316 33.1179 64.5279 33.6349C64.56 34.0226 64.6563 34.4103 64.8168 34.7981C64.881 35.1858 64.9292 35.5897 64.9613 36.0097C65.0255 36.4297 65.0897 36.8498 65.1539 37.2698Z" fill="white"/>
<path d="M87.793 1.2601C88.3066 1.19548 88.6918 1.24394 88.9486 1.40549C89.2375 1.53473 89.5264 1.61551 89.8152 1.64782C89.9757 1.68013 90.1362 1.69628 90.2967 1.69628C90.4893 1.66397 90.6819 1.64782 90.8745 1.64782C91.2918 1.64782 91.6128 1.69628 91.8375 1.79321C92.0943 1.89015 92.351 2.10016 92.6078 2.42326C92.672 2.48788 92.7523 2.58481 92.8486 2.71405C92.977 2.81099 93.0412 2.90792 93.0412 3.00485C93.0412 3.26333 92.977 3.4895 92.8486 3.68336C92.7202 3.87722 92.656 4.15186 92.656 4.50727C92.656 5.05654 92.7202 5.60582 92.8486 6.15509C92.977 6.67205 93.0572 7.20517 93.0893 7.75444C93.2498 9.75767 93.33 11.7771 93.33 13.8126C93.3622 15.8158 93.3782 17.8029 93.3782 19.7738C93.3782 20.0323 93.3622 20.2746 93.33 20.5008C93.33 20.6947 93.2659 20.8724 93.1375 21.0339V21.664C93.1054 22.504 93.1214 23.3603 93.1856 24.2326C93.2498 25.0727 93.2819 25.9128 93.2819 26.7528C93.2819 27.496 93.2338 28.2391 93.1375 28.9822C93.0733 29.7254 93.0412 30.4847 93.0412 31.2601C93.0412 31.9709 93.0893 32.6656 93.1856 33.3441C93.2819 34.0226 93.33 34.7173 93.33 35.4281C93.1696 35.7189 93.0733 35.9451 93.0412 36.1066C93.0091 36.2682 92.9449 36.4136 92.8486 36.5428C92.7523 36.6074 92.6399 36.6236 92.5115 36.5913C92.4152 36.559 92.335 36.5913 92.2708 36.6882C92.1103 36.8821 91.998 37.1082 91.9338 37.3667C91.8696 37.6252 91.7091 37.8352 91.4523 37.9968C91.3881 38.4491 91.2115 38.7884 90.9227 39.0145C90.6659 39.273 90.4733 39.5961 90.3449 39.9838C89.9597 40.0162 89.6869 40 89.5264 39.9354C89.398 39.8708 89.2535 39.8061 89.093 39.7415C89.0609 39.1922 89.0609 38.7884 89.093 38.5299C89.1572 38.3037 89.1893 38.0614 89.1893 37.8029C89.1893 37.4798 89.1091 37.2375 88.9486 37.0759C88.7881 36.9144 88.6757 36.7044 88.6115 36.4459C88.2585 36.2197 88.0177 36.0743 87.8893 36.0097C87.7609 35.9128 87.6486 35.7997 87.5523 35.6704C87.3597 35.412 87.1992 35.1373 87.0708 34.8465C86.9424 34.5557 86.798 34.2811 86.6375 34.0226C86.1881 33.2795 85.7227 32.5202 85.2412 31.7447C84.7918 30.9693 84.2943 30.21 83.7486 29.4669C83.6523 29.3053 83.54 29.1599 83.4116 29.0307C83.2832 28.9015 83.1708 28.7561 83.0745 28.5945C82.5289 27.7221 82.0153 26.8336 81.5338 25.9289C81.0523 25.0242 80.4906 24.168 79.8486 23.3603C79.5918 23.0372 79.3992 22.6817 79.2708 22.294C79.1424 21.874 78.9499 21.5186 78.6931 21.2278C78.661 21.3893 78.6449 21.567 78.6449 21.7609C78.6449 21.9548 78.6449 22.1325 78.6449 22.294C78.6449 23.3926 78.661 24.4911 78.6931 25.5897C78.7573 26.6559 78.7894 27.7383 78.7894 28.8368C78.7894 29.063 78.7573 29.273 78.6931 29.4669C78.661 29.6284 78.6449 29.8223 78.6449 30.0485C78.6449 30.3716 78.661 30.6785 78.6931 30.9693C78.7252 31.2601 78.7412 31.5509 78.7412 31.8417C78.7412 32.1971 78.7252 32.5363 78.6931 32.8595C78.6931 33.1826 78.677 33.5057 78.6449 33.8288C78.5807 34.2488 78.5005 34.6527 78.4042 35.0404C78.3079 35.3958 78.2597 35.7674 78.2597 36.1551C78.2597 36.3813 78.2758 36.5913 78.3079 36.7851C78.3721 36.979 78.4042 37.1567 78.4042 37.3183C78.1795 37.6737 77.8906 37.8514 77.5375 37.8514C77.2165 37.8514 76.9437 37.9806 76.719 38.2391C76.5264 38.2068 76.3659 38.2229 76.2375 38.2876C76.1412 38.3522 76.0449 38.3845 75.9486 38.3845C75.8202 38.3845 75.7079 38.3683 75.6116 38.336C75.5474 38.3037 75.4671 38.2876 75.3709 38.2876C75.2104 38.2876 75.0499 38.3683 74.8894 38.5299C74.7289 38.6914 74.5684 38.7722 74.4079 38.7722C74.3116 38.7722 74.1351 38.7076 73.8783 38.5784C73.6536 38.4491 73.3968 38.2876 73.1079 38.0937C72.8511 37.9321 72.6104 37.7544 72.3857 37.5606C72.161 37.399 72.0486 37.2698 72.0486 37.1729C72.0165 37.0113 72.0005 36.7851 72.0005 36.4943C72.0005 36.1066 72.0165 35.7351 72.0486 35.3796C72.1128 34.9919 72.177 34.6042 72.2412 34.2165C72.3375 33.1179 72.3857 32.0355 72.3857 30.9693C72.3857 29.8708 72.3857 28.7722 72.3857 27.6737C72.3857 27.2213 72.3857 26.769 72.3857 26.3166C72.4178 25.8643 72.4338 25.412 72.4338 24.9596C72.4338 23.8934 72.3857 22.8271 72.2894 21.7609C72.2252 20.6624 72.1931 19.58 72.1931 18.5137C72.1931 17.7706 72.2252 17.0436 72.2894 16.3328C72.3536 15.5897 72.3857 14.8627 72.3857 14.1519C72.3857 13.6026 72.3696 13.0695 72.3375 12.5525C72.3054 12.0355 72.2894 11.5024 72.2894 10.9531C72.2573 10.5977 72.2573 10.2262 72.2894 9.83845C72.3215 9.41842 72.3375 9.03069 72.3375 8.67528C72.3375 8.25525 72.2733 7.86753 72.1449 7.51212C72.0486 7.12439 72.0005 6.76898 72.0005 6.44588C72.0005 6.25202 72.0326 6.07431 72.0968 5.91276C72.1931 5.7189 72.2412 5.52504 72.2412 5.33118C72.2412 5.0727 72.1931 4.81422 72.0968 4.55574C72.0326 4.29725 72.0005 4.03877 72.0005 3.78029C72.0005 3.52181 72.0326 3.27948 72.0968 3.05331C72.161 2.82714 72.1931 2.58481 72.1931 2.32633C72.6425 2.10016 73.0437 1.98708 73.3968 1.98708C73.7499 1.98708 74.0067 2.11632 74.1672 2.3748C74.1672 2.95638 74.1993 3.40872 74.2635 3.73183C74.3276 4.02262 74.3758 4.32956 74.4079 4.65267C74.4079 4.84653 74.3918 5.0727 74.3597 5.33118C74.3597 5.58966 74.3758 5.84814 74.4079 6.10662C74.44 6.33279 74.5042 6.52666 74.6005 6.68821C74.7289 6.84976 74.9375 6.93053 75.2264 6.93053C75.2906 7.09208 75.3709 7.23748 75.4671 7.36672C75.5634 7.49596 75.6276 7.65751 75.6597 7.85137C75.8523 7.72213 75.9647 7.54443 75.9968 7.31825C76.0289 7.09208 76.0289 6.88207 75.9968 6.68821C76.1573 6.75283 76.3017 6.78514 76.4301 6.78514C76.5585 6.75283 76.6869 6.76898 76.8153 6.8336C76.8795 7.28594 76.9597 7.68982 77.056 8.04523C77.1523 8.36834 77.1844 8.75606 77.1523 9.2084C77.7943 9.69305 78.34 10.3877 78.7894 11.2924C79.2708 12.1648 79.7202 12.9564 80.1375 13.6672C80.3622 14.0226 80.619 14.3619 80.9079 14.685C81.2289 14.9758 81.4696 15.3312 81.6301 15.7512C81.8869 15.9128 82.0955 16.1228 82.256 16.3813C82.4165 16.6397 82.561 16.8982 82.6893 17.1567C83.3313 18.2876 84.0375 19.3861 84.8079 20.4523C85.5782 21.5186 86.3807 22.5687 87.2153 23.6026C87.2474 23.3764 87.2634 23.1664 87.2634 22.9725C87.2634 22.7464 87.2634 22.5202 87.2634 22.294L87.2153 17.9321C87.2153 17.6737 87.1992 17.4313 87.1671 17.2052C87.1671 16.979 87.1511 16.7367 87.119 16.4782C87.0548 15.6381 87.0387 14.8142 87.0708 14.0065C87.1029 13.1987 87.1029 12.3748 87.0708 11.5347C87.0066 10.6624 86.9585 9.77383 86.9264 8.86914C86.9264 7.96446 86.8943 7.05977 86.8301 6.15509C86.798 5.60582 86.7659 5.05654 86.7338 4.50727C86.7017 3.958 86.6856 3.40872 86.6856 2.85945C86.6856 2.18094 86.7498 1.56704 86.8782 1.01777C86.9424 0.95315 87.0066 0.904685 87.0708 0.872375C87.1671 0.807754 87.2795 0.775444 87.4079 0.775444C87.6004 0.775444 87.7288 0.936995 87.793 1.2601Z" fill="white"/>
<path d="M109.325 4.4588C109.325 4.7496 109.229 4.97577 109.036 5.13732C108.843 5.26656 108.667 5.44426 108.506 5.67044C108.185 5.96123 107.896 6.26817 107.64 6.59128C107.415 6.88207 107.142 7.17286 106.821 7.46365C106.693 7.59289 106.516 7.7706 106.291 7.99677C106.067 8.19063 105.826 8.40065 105.569 8.62682C105.345 8.82068 105.104 8.99838 104.847 9.15993C104.622 9.32149 104.43 9.40226 104.269 9.40226C104.012 9.40226 103.675 9.32149 103.258 9.15993C102.873 8.96607 102.536 8.83683 102.247 8.77221C102.022 8.7399 101.814 8.72375 101.621 8.72375C101.461 8.69144 101.3 8.59451 101.14 8.43296C100.562 8.30372 100.193 8.10985 100.032 7.85137C99.8717 7.56058 99.6952 7.26979 99.5026 6.979C99.5026 6.84976 99.5508 6.76898 99.6471 6.73667C99.7434 6.70436 99.8236 6.63974 99.8878 6.54281C100.209 6.12278 100.482 5.78352 100.706 5.52504C100.931 5.23425 101.188 4.94346 101.477 4.65267C102.022 4.16801 102.536 3.66721 103.017 3.15024C103.531 2.63328 104.061 2.14863 104.606 1.69628C104.863 1.66397 105.056 1.56704 105.184 1.40549C105.312 1.24394 105.505 1.16317 105.762 1.16317C106.019 1.16317 106.227 1.24394 106.388 1.40549C106.58 1.56704 106.741 1.7609 106.869 1.98708C107.03 2.18094 107.174 2.39095 107.303 2.61712C107.463 2.81099 107.64 2.95638 107.832 3.05331C108.057 3.21486 108.362 3.42488 108.747 3.68336C109.132 3.94184 109.325 4.20032 109.325 4.4588ZM102.729 13.4733C102.953 13.6026 103.114 13.7803 103.21 14.0065C103.338 14.2003 103.515 14.3457 103.74 14.4426C103.932 14.5396 104.141 14.588 104.366 14.588C104.59 14.588 104.783 14.6204 104.943 14.685C105.072 14.7496 105.168 14.8304 105.232 14.9273C105.296 15.0242 105.361 15.1212 105.425 15.2181C105.617 15.3796 105.906 15.525 106.291 15.6543C106.709 15.7835 106.982 15.9289 107.11 16.0905C107.335 16.3813 107.495 16.7528 107.591 17.2052C107.72 17.6575 107.816 18.1422 107.88 18.6591C107.945 19.1438 107.993 19.6446 108.025 20.1616C108.057 20.6462 108.105 21.0662 108.169 21.4216C108.233 22.1648 108.314 22.9079 108.41 23.651C108.506 24.3619 108.554 25.0889 108.554 25.832C108.554 26.5751 108.522 27.3344 108.458 28.1099C108.394 28.8853 108.362 29.6446 108.362 30.3877C108.362 30.7754 108.346 31.2601 108.314 31.8417C108.314 32.4233 108.185 32.8756 107.929 33.1987C107.896 33.3279 107.88 33.5541 107.88 33.8772V35.4281C107.88 35.622 107.896 35.8158 107.929 36.0097C107.961 36.2036 107.977 36.4136 107.977 36.6397C107.977 36.9952 107.88 37.2536 107.688 37.4152C107.591 37.3829 107.479 37.3667 107.351 37.3667C107.254 37.3667 107.158 37.3667 107.062 37.3667C106.709 37.3667 106.452 37.4313 106.291 37.5606C105.938 37.5283 105.601 37.496 105.28 37.4636C104.959 37.4313 104.622 37.4152 104.269 37.4152C103.724 37.4152 103.13 37.496 102.488 37.6575C102.359 37.3344 102.295 36.9952 102.295 36.6397C102.327 36.2843 102.263 35.9612 102.103 35.6704C102.071 35.5735 102.038 35.4927 102.006 35.4281C102.006 35.3312 102.006 35.2342 102.006 35.1373C102.103 34.7496 102.151 34.4911 102.151 34.3619C102.151 34.2003 102.151 34.0388 102.151 33.8772C102.151 33.4249 102.135 32.9725 102.103 32.5202C102.071 32.0355 102.087 31.567 102.151 31.1147C102.151 30.9531 102.167 30.8078 102.199 30.6785C102.263 30.5493 102.295 30.4039 102.295 30.2423C102.295 30.0808 102.263 29.9677 102.199 29.9031C102.135 29.8384 102.103 29.7577 102.103 29.6607C102.103 29.5638 102.103 29.4023 102.103 29.1761C102.135 28.9499 102.183 28.8045 102.247 28.7399C102.247 28.4814 102.247 28.2391 102.247 28.0129C102.279 27.7544 102.295 27.5121 102.295 27.2859C102.295 26.769 102.279 26.252 102.247 25.7351C102.215 25.2181 102.199 24.7173 102.199 24.2326C102.199 24.0065 102.183 23.8611 102.151 23.7964C102.119 23.7318 102.087 23.6834 102.054 23.651C102.022 23.6187 101.974 23.6026 101.91 23.6026C101.846 23.5703 101.798 23.5057 101.766 23.4087C101.894 21.9871 101.846 20.5654 101.621 19.1438C101.396 17.7221 101.284 16.2843 101.284 14.8304C101.284 14.6042 101.316 14.4426 101.38 14.3457C101.445 14.2165 101.525 14.1195 101.621 14.0549C101.717 13.9903 101.798 13.9257 101.862 13.8611C101.958 13.7641 102.022 13.6349 102.054 13.4733C102.311 13.538 102.536 13.538 102.729 13.4733Z" fill="white"/>
<path d="M137.26 1.55089C137.645 1.45396 137.918 1.42165 138.079 1.45396C138.239 1.45396 138.4 1.47011 138.56 1.50242C138.753 1.63166 138.913 1.79321 139.042 1.98708C139.042 2.66559 139.026 3.3441 138.994 4.02262C138.994 4.66882 138.994 5.33118 138.994 6.00969C138.994 7.23748 139.01 8.46527 139.042 9.69305C139.074 10.9208 139.074 12.1486 139.042 13.3764C139.106 13.6672 139.122 13.8288 139.09 13.8611C139.058 13.8934 139.042 13.9418 139.042 14.0065C139.042 15.2342 139.074 16.4459 139.138 17.6414C139.202 18.8368 139.234 20.0485 139.234 21.2763V27.7221C139.234 29.1115 139.266 30.4847 139.331 31.8417C139.427 33.1987 139.475 34.5557 139.475 35.9128C139.475 36.042 139.395 36.2197 139.234 36.4459C139.17 36.7044 139.074 36.9144 138.945 37.0759C138.657 37.1082 138.384 37.0598 138.127 36.9305C137.999 36.9305 137.902 36.979 137.838 37.0759C137.806 37.1405 137.742 37.2052 137.645 37.2698C137.389 37.2698 137.18 37.3344 137.02 37.4636C136.859 37.5929 136.666 37.6575 136.442 37.6575C136.249 37.6575 136.057 37.6252 135.864 37.5606C135.703 37.5283 135.511 37.5121 135.286 37.5121C135.222 37.5121 135.126 37.5606 134.997 37.6575C134.869 37.7868 134.773 37.8675 134.708 37.8998C134.548 37.8998 134.403 37.916 134.275 37.9483C134.147 38.0129 134.002 38.0452 133.842 38.0452C133.681 37.916 133.601 37.7221 133.601 37.4636C133.633 37.2052 133.537 37.0436 133.312 36.979C133.312 36.8174 133.312 36.6397 133.312 36.4459C133.344 36.252 133.36 36.0582 133.36 35.8643C133.36 34.6042 133.328 33.3441 133.264 32.084C133.2 30.7916 133.152 29.5153 133.12 28.2552C133.087 27.706 133.071 27.1729 133.071 26.6559C133.104 26.1066 133.12 25.5574 133.12 25.0081C133.12 24.7173 133.12 24.4265 133.12 24.1357C133.12 23.8449 133.087 23.5703 133.023 23.3118C132.831 23.2795 132.654 23.3118 132.494 23.4087C132.365 23.4733 132.221 23.5057 132.06 23.5057C131.386 23.7318 130.937 23.958 130.712 24.1842C130.52 24.1842 130.359 24.2165 130.231 24.2811C130.102 24.3457 129.958 24.4103 129.797 24.475C129.541 24.5396 129.284 24.6042 129.027 24.6688C128.802 24.7011 128.562 24.7658 128.305 24.8627C128.144 24.9273 127.984 24.9919 127.823 25.0565C127.663 25.1212 127.502 25.1858 127.342 25.2504C126.989 25.3796 126.636 25.5089 126.283 25.6381C125.929 25.7351 125.576 25.8481 125.223 25.9774C124.87 26.042 124.565 26.1389 124.308 26.2682C124.052 26.3974 123.795 26.5267 123.538 26.6559C123.313 28.1745 123.185 29.6284 123.153 31.0178C123.153 32.3748 123.201 33.7318 123.297 35.0889C123.233 35.2827 123.201 35.5089 123.201 35.7674C123.201 35.9935 123.153 36.1874 123.057 36.3489C122.704 36.4459 122.463 36.462 122.334 36.3974C122.238 36.3005 122.126 36.2197 121.997 36.1551C121.869 36.1874 121.757 36.252 121.66 36.3489C121.596 36.4459 121.532 36.5267 121.468 36.5913C121.211 36.5913 121.002 36.6559 120.842 36.7851C120.713 36.8821 120.585 36.9628 120.457 37.0275C120.36 37.0598 120.264 37.0598 120.168 37.0275C120.071 36.9952 119.959 37.0113 119.831 37.0759C119.51 37.0759 119.349 37.0436 119.349 36.979C119.381 36.8821 119.349 36.8336 119.253 36.8336C119.125 36.8336 119.028 36.8982 118.964 37.0275C118.932 37.1244 118.852 37.2052 118.723 37.2698C118.595 37.3344 118.45 37.3829 118.29 37.4152C118.129 37.4152 117.969 37.4475 117.808 37.5121C117.648 37.3506 117.568 37.1729 117.568 36.979C117.568 36.7851 117.487 36.6074 117.327 36.4459C117.263 35.9935 117.215 35.5574 117.183 35.1373C117.183 34.685 117.134 34.2326 117.038 33.7803C117.102 32.8756 117.118 32.1486 117.086 31.5994C117.086 31.0501 117.086 30.4847 117.086 29.9031C117.086 29.3861 117.07 28.8691 117.038 28.3522C117.006 27.8352 116.974 27.3183 116.942 26.8013C116.878 25.8643 116.813 24.9111 116.749 23.9418C116.717 22.9725 116.701 22.0032 116.701 21.0339C116.701 20.2262 116.733 19.4346 116.797 18.6591C116.894 17.8837 116.942 17.0921 116.942 16.2843C116.942 15.7351 116.942 15.2019 116.942 14.685C116.974 14.1357 116.99 13.5864 116.99 13.0372C116.99 12.5848 116.974 12.1486 116.942 11.7286C116.942 11.2763 116.942 10.8401 116.942 10.42C116.942 9.93538 116.974 9.46688 117.038 9.01454C117.102 8.52989 117.134 8.06139 117.134 7.60905C117.134 7.05977 117.102 6.52666 117.038 6.00969C116.974 5.46042 116.942 4.91115 116.942 4.36187C116.942 4.20032 116.958 4.05493 116.99 3.92569C117.022 3.76414 117.038 3.60258 117.038 3.44103C117.006 3.08562 117.022 2.87561 117.086 2.81099C117.15 2.71405 117.215 2.60097 117.279 2.47173C117.439 2.43942 117.616 2.39095 117.808 2.32633C118.001 2.26171 118.178 2.26171 118.338 2.32633C118.531 2.13247 118.787 2.03554 119.108 2.03554C119.462 2.03554 119.718 1.92246 119.879 1.69628C120.104 1.72859 120.248 1.74475 120.312 1.74475C120.408 1.71244 120.489 1.69628 120.553 1.69628C120.842 1.7609 120.986 1.7609 120.986 1.69628C121.018 1.59935 121.083 1.55089 121.179 1.55089C121.339 1.55089 121.58 1.56704 121.901 1.59935C122.254 1.59935 122.495 1.66397 122.623 1.79321C122.944 3.50565 123.121 5.2504 123.153 7.02746C123.185 8.80452 123.201 10.5654 123.201 12.3102C123.201 12.7625 123.217 13.231 123.249 13.7157C123.281 14.168 123.265 14.6204 123.201 15.0727C123.201 15.2666 123.185 15.4604 123.153 15.6543C123.121 15.8158 123.105 15.9935 123.105 16.1874C123.105 16.7367 123.073 17.3183 123.008 17.9321C122.944 18.5137 122.912 19.0792 122.912 19.6284C123.297 19.8546 123.618 19.9354 123.875 19.8708C124.164 19.7738 124.437 19.6769 124.694 19.58C125.015 19.483 125.304 19.3861 125.56 19.2892C125.849 19.1599 126.138 19.0468 126.427 18.9499C126.684 18.8207 126.957 18.7237 127.245 18.6591C127.566 18.5622 127.855 18.4814 128.112 18.4168C128.947 18.126 129.765 17.7706 130.568 17.3506C131.37 16.9305 132.189 16.5913 133.023 16.3328C132.959 14.5557 132.927 12.7948 132.927 11.0501C132.927 9.27302 132.927 7.51212 132.927 5.76737C132.927 5.28271 132.927 4.78191 132.927 4.26494C132.927 3.74798 132.959 3.24717 133.023 2.76252C133.055 2.63328 133.087 2.53635 133.12 2.47173C133.184 2.3748 133.216 2.24556 133.216 2.08401C133.312 1.92246 133.424 1.80937 133.553 1.74475C133.681 1.68013 133.778 1.5832 133.842 1.45396C133.906 1.51858 133.97 1.5832 134.034 1.64782C134.131 1.68013 134.227 1.71244 134.323 1.74475C134.58 1.68013 134.724 1.63166 134.757 1.59935C134.821 1.56704 134.885 1.53473 134.949 1.50242C135.11 1.4378 135.318 1.40549 135.575 1.40549C135.832 1.40549 136.041 1.40549 136.201 1.40549H136.779L137.26 1.55089Z" fill="white"/>
<path d="M157.54 0.726979C157.701 1.30856 157.861 1.89015 158.022 2.47173C158.182 3.021 158.375 3.57027 158.599 4.11955C159.081 4.18417 159.37 4.23263 159.466 4.26494C159.595 4.29725 159.739 4.34572 159.899 4.41034C160.253 5.2504 160.461 6.15509 160.525 7.12439C160.622 8.06139 160.75 8.98223 160.911 9.88691C161.52 10.6947 161.954 11.567 162.211 12.504C162.499 13.4087 162.82 14.3296 163.174 15.2666C163.27 15.5897 163.334 15.7997 163.366 15.8966C163.398 15.9612 163.414 16.0258 163.414 16.0905C163.607 16.6397 163.799 17.2052 163.992 17.7868C164.185 18.3683 164.393 18.9338 164.618 19.483C164.714 19.7738 164.811 20.0646 164.907 20.3554C165.035 20.6139 165.148 20.8724 165.244 21.1309C165.34 21.454 165.42 21.7932 165.485 22.1486C165.581 22.4717 165.677 22.7948 165.773 23.1179C165.998 23.7641 166.239 24.4103 166.496 25.0565C166.753 25.7027 167.009 26.3489 167.266 26.9952C167.362 27.2213 167.539 27.7221 167.796 28.4976C168.085 29.273 168.373 30.0969 168.662 30.9693C168.951 31.8094 169.208 32.601 169.433 33.3441C169.69 34.0549 169.818 34.4911 169.818 34.6527C169.818 34.9111 169.834 35.1858 169.866 35.4766C169.93 35.7351 169.978 36.0097 170.011 36.3005C169.882 36.6236 169.722 36.8013 169.529 36.8336C169.336 36.8659 169.16 36.8498 168.999 36.7851C168.839 36.8498 168.678 36.9144 168.518 36.979C168.39 37.0436 168.261 37.1082 168.133 37.1729C168.036 37.2052 167.956 37.2536 167.892 37.3183C167.828 37.3829 167.748 37.4152 167.651 37.4152C167.266 37.4152 167.009 37.4475 166.881 37.5121C166.785 37.609 166.624 37.6575 166.399 37.6575C166.111 37.5606 165.918 37.5444 165.822 37.609C165.757 37.706 165.693 37.7706 165.629 37.8029C165.501 37.8675 165.356 37.8998 165.196 37.8998C165.035 37.8998 164.875 37.916 164.714 37.9483C164.65 37.8191 164.586 37.6898 164.522 37.5606C164.49 37.4313 164.425 37.2859 164.329 37.1244C163.976 36.6074 163.719 36.1066 163.559 35.622C163.43 35.1373 163.318 34.7496 163.222 34.4588C163.061 34.1034 162.917 33.748 162.788 33.3926C162.692 33.0372 162.564 32.6817 162.403 32.3263C162.211 32.391 162.034 32.4717 161.874 32.5687C161.713 32.6333 161.585 32.7302 161.488 32.8595C161.103 32.8595 160.911 32.9079 160.911 33.0048C160.911 33.1018 160.878 33.1987 160.814 33.2956C160.622 33.3603 160.461 33.4249 160.333 33.4895C160.236 33.5541 160.06 33.5703 159.803 33.538C159.643 33.6995 159.482 33.8449 159.322 33.9742C159.161 34.0711 158.953 34.1357 158.696 34.168C158.439 34.4265 158.166 34.6527 157.877 34.8465C157.62 35.0081 157.316 35.0404 156.962 34.9435C156.513 35.0404 156.064 35.1373 155.614 35.2342C155.165 35.2989 154.716 35.3312 154.266 35.3312C153.753 35.1696 153.432 35.0242 153.303 34.895C153.175 34.7658 152.982 34.7011 152.725 34.7011C152.757 34.2488 152.661 33.9418 152.437 33.7803C152.437 33.6834 152.437 33.538 152.437 33.3441C152.469 33.1179 152.517 32.9725 152.581 32.9079C152.998 32.7141 153.239 32.504 153.303 32.2779C153.367 32.0517 153.544 31.9063 153.833 31.8417C153.897 31.7124 153.961 31.5994 154.025 31.5024C154.122 31.3732 154.202 31.2439 154.266 31.1147C154.427 31.0501 154.555 31.0016 154.651 30.9693C154.78 30.937 154.876 30.8401 154.94 30.6785C155.101 30.6785 155.341 30.5816 155.662 30.3877C155.983 30.1616 156.192 29.9838 156.288 29.8546C156.545 29.7577 156.706 29.6769 156.77 29.6123C156.834 29.5153 156.914 29.4346 157.011 29.37C157.332 29.4023 157.54 29.37 157.636 29.273C157.893 29.4023 158.182 29.4669 158.503 29.4669C158.632 29.4669 158.744 29.4669 158.84 29.4669C158.936 29.4346 159.049 29.4184 159.177 29.4184C159.434 29.1599 159.755 28.9984 160.14 28.9338C160.557 28.8368 160.895 28.6591 161.151 28.4006C161.055 28.1422 160.975 27.8352 160.911 27.4798C160.846 27.0921 160.734 26.7851 160.574 26.559C160.509 26.1389 160.397 25.7351 160.236 25.3473C160.108 24.9596 159.996 24.588 159.899 24.2326C159.546 22.8756 159.129 21.5509 158.648 20.2585C158.166 18.9661 157.765 17.6414 157.444 16.2843C157.38 16.1228 157.299 15.9612 157.203 15.7997C157.139 15.6058 157.075 15.4281 157.011 15.2666C156.85 15.6543 156.77 15.8805 156.77 15.9451C156.77 15.9774 156.738 16.0258 156.674 16.0905C156.641 16.252 156.609 16.3974 156.577 16.5267C156.545 16.6236 156.497 16.7528 156.433 16.9144C156.337 17.1729 156.24 17.4636 156.144 17.7868C156.08 18.0775 156.016 18.3522 155.951 18.6107C155.791 19.1599 155.646 19.7415 155.518 20.3554C155.39 20.937 155.245 21.5186 155.085 22.1002C154.764 23.1018 154.427 24.1034 154.074 25.105C153.753 26.0743 153.432 27.0598 153.111 28.0614C153.046 28.5137 152.966 28.8691 152.87 29.1276C152.806 29.3538 152.725 29.5961 152.629 29.8546C152.565 30.0808 152.501 30.3069 152.437 30.5331C152.404 30.7593 152.388 30.937 152.388 31.0662C151.939 32.1002 151.554 33.1502 151.233 34.2165C150.944 35.2827 150.575 36.3166 150.125 37.3183C149.997 37.3829 149.885 37.4636 149.788 37.5606C149.692 37.6575 149.58 37.706 149.451 37.706C149.195 37.706 149.05 37.6414 149.018 37.5121C149.018 37.3829 148.954 37.3183 148.825 37.3183C148.697 37.3183 148.585 37.3506 148.488 37.4152C148.392 37.4475 148.296 37.496 148.199 37.5606C148.039 37.496 147.846 37.4475 147.622 37.4152C147.429 37.4152 147.285 37.3506 147.188 37.2213C146.964 37.3829 146.739 37.4636 146.514 37.4636C146.258 37.4636 146.001 37.3829 145.744 37.2213C145.551 37.2859 145.359 37.3183 145.166 37.3183C145.07 37.3183 144.958 37.3021 144.829 37.2698C144.701 37.2375 144.604 37.189 144.54 37.1244C144.508 36.9952 144.492 36.8659 144.492 36.7367C144.492 36.6074 144.492 36.462 144.492 36.3005C144.492 35.9774 144.46 35.7351 144.396 35.5735C144.974 33.9257 145.535 32.2617 146.081 30.5816C146.627 28.8691 147.172 27.1405 147.718 25.3958C148.007 24.588 148.28 23.7964 148.537 23.021C148.825 22.2456 149.098 21.454 149.355 20.6462C149.483 20.1939 149.596 19.7738 149.692 19.3861C149.788 18.9661 149.917 18.5622 150.077 18.1745C150.334 17.3344 150.591 16.4943 150.848 15.6543C151.137 14.7819 151.393 13.9257 151.618 13.0856C151.746 12.9887 151.827 12.8756 151.859 12.7464C151.891 12.6171 151.939 12.4717 152.003 12.3102L151.955 11.6801C152.18 11.357 152.324 11.0824 152.388 10.8562C152.485 10.5977 152.549 10.3393 152.581 10.0808C152.741 9.69305 152.886 9.27302 153.014 8.82068C153.143 8.36834 153.239 7.9483 153.303 7.56058C153.367 7.04362 153.399 6.46204 153.399 5.81583C153.432 5.13732 153.528 4.57189 153.688 4.11955C153.753 3.99031 153.801 3.90953 153.833 3.87722C153.897 3.8126 153.929 3.69952 153.929 3.53796C153.993 3.47334 154.057 3.40872 154.122 3.3441C154.218 3.24717 154.282 3.15024 154.314 3.05331C154.475 2.79483 154.523 2.56866 154.459 2.3748C154.427 2.18094 154.411 1.97092 154.411 1.74475C154.699 1.5832 154.828 1.4378 154.796 1.30856C154.764 1.17932 154.748 1.05008 154.748 0.92084C154.748 0.759289 154.844 0.613893 155.036 0.484653C155.261 0.323102 155.406 0.161551 155.47 0C155.662 0.0323102 155.855 0.0646204 156.048 0.0969305C156.24 0.0969305 156.433 0.0807754 156.625 0.0484653C156.85 0.468498 157.123 0.678514 157.444 0.678514L157.54 0.726979Z" fill="white"/>
<path d="M193.276 29.1276C193.5 29.4184 193.629 29.6607 193.661 29.8546C193.725 30.0162 193.789 30.1939 193.853 30.3877C193.918 30.5493 193.966 30.7108 193.998 30.8724C194.062 31.0339 194.094 31.1309 194.094 31.1632C194.094 31.3893 194.046 31.5832 193.95 31.7447C193.885 31.874 193.773 32.0517 193.613 32.2779C192.329 32.7625 191.061 33.2472 189.809 33.7318C188.557 34.1842 187.273 34.6365 185.957 35.0889C185.604 35.1858 185.283 35.2989 184.994 35.4281C184.705 35.525 184.384 35.6058 184.031 35.6704C183.967 35.7351 183.855 35.7997 183.694 35.8643C183.566 35.8966 183.405 35.9451 183.213 36.0097C183.02 36.0743 182.828 36.1389 182.635 36.2036C182.474 36.2359 182.362 36.252 182.298 36.252C182.041 36.3166 181.752 36.3489 181.431 36.3489C181.142 36.3166 180.853 36.3166 180.565 36.3489C180.404 36.3813 180.292 36.462 180.228 36.5913C180.163 36.7205 180.083 36.8659 179.987 37.0275C179.923 37.1567 179.81 37.2859 179.65 37.4152C179.489 37.5121 179.265 37.5606 178.976 37.5606C178.687 37.5606 178.398 37.5444 178.109 37.5121C177.82 37.4798 177.515 37.399 177.194 37.2698C177.13 37.1729 177.098 37.0598 177.098 36.9305C177.13 36.769 177.114 36.6397 177.05 36.5428C176.761 36.5105 176.536 36.5428 176.376 36.6397C176.215 36.7044 176.055 36.7528 175.894 36.7851C175.798 36.6559 175.718 36.5105 175.653 36.3489C175.621 36.1551 175.541 35.9935 175.413 35.8643C175.381 35.7027 175.365 35.5412 175.365 35.3796C175.365 35.2181 175.365 35.0565 175.365 34.895C175.365 34.6688 175.365 34.4103 175.365 34.1195C175.397 33.7964 175.461 33.5541 175.557 33.3926C175.653 31.5509 175.702 29.7092 175.702 27.8675C175.702 26.0258 175.702 24.1842 175.702 22.3425C175.702 22.1486 175.702 21.9063 175.702 21.6155C175.702 21.2924 175.686 20.9693 175.653 20.6462C175.653 20.3231 175.637 20.0323 175.605 19.7738C175.605 19.483 175.589 19.273 175.557 19.1438C175.589 18.9176 175.605 18.7076 175.605 18.5137C175.605 18.2876 175.605 18.0614 175.605 17.8352C175.605 17.6414 175.605 17.4636 175.605 17.3021C175.605 17.1405 175.573 16.979 175.509 16.8174C175.541 16.6882 175.557 16.5105 175.557 16.2843C175.557 16.1228 175.541 15.9612 175.509 15.7997C175.477 15.6381 175.461 15.4766 175.461 15.315C175.461 15.0565 175.461 14.8142 175.461 14.588C175.493 14.3296 175.509 14.0711 175.509 13.8126C175.509 12.9725 175.461 12.1486 175.365 11.3409C175.3 10.5008 175.268 9.66074 175.268 8.82068C175.268 7.72213 175.252 6.62359 175.22 5.52504C175.22 4.42649 175.204 3.32795 175.172 2.2294C175.3 1.9063 175.365 1.63166 175.365 1.40549C175.814 1.17932 176.167 1.09855 176.424 1.16317C176.681 1.22779 176.937 1.2601 177.194 1.2601C177.355 1.2601 177.499 1.24394 177.628 1.21163C177.756 1.17932 177.884 1.13086 178.013 1.06624C178.173 1.09855 178.302 1.14701 178.398 1.21163C178.526 1.24394 178.671 1.2601 178.831 1.2601C179.313 1.16317 179.57 1.14701 179.602 1.21163C179.666 1.27625 179.746 1.34087 179.842 1.40549C179.971 1.37318 180.067 1.32472 180.131 1.2601C180.228 1.16317 180.34 1.1147 180.468 1.1147C180.661 1.1147 180.805 1.24394 180.902 1.50242C180.998 1.72859 181.11 1.92246 181.239 2.08401C181.239 2.43942 181.303 2.76252 181.431 3.05331C181.495 4.37803 181.511 5.68659 181.479 6.979C181.479 8.27141 181.528 9.56381 181.624 10.8562C181.656 11.4378 181.688 12.0517 181.72 12.6979C181.784 13.3118 181.816 13.9095 181.816 14.4911C181.816 15.4604 181.816 16.4459 181.816 17.4475C181.848 18.4168 181.865 19.4023 181.865 20.4039C181.865 20.5654 181.865 20.7108 181.865 20.8401C181.897 20.9693 181.913 21.1147 181.913 21.2763C181.913 21.664 181.897 22.0355 181.865 22.391C181.832 22.7464 181.816 23.1018 181.816 23.4572V27.2375C181.816 27.5606 181.8 27.8998 181.768 28.2552C181.768 28.5784 181.784 28.9015 181.816 29.2246L182.009 29.8061C182.362 29.6769 182.715 29.5477 183.068 29.4184C183.453 29.2569 183.855 29.1438 184.272 29.0792C184.529 29.0145 184.769 28.9499 184.994 28.8853C185.219 28.8207 185.46 28.7561 185.716 28.6914C186.166 28.433 186.519 28.2552 186.776 28.1583C187.032 28.0614 187.289 27.9645 187.546 27.8675C188.092 27.6737 188.621 27.4798 189.135 27.2859C189.648 27.0598 190.178 26.8498 190.724 26.6559C190.981 26.7205 191.189 26.6882 191.35 26.559C191.671 26.6236 191.96 26.6559 192.216 26.6559C192.569 27.0113 192.778 27.2859 192.842 27.4798C192.939 27.6737 193.067 27.8514 193.227 28.0129C193.163 28.1745 193.163 28.2714 193.227 28.3037C193.324 28.336 193.388 28.4168 193.42 28.546C193.548 28.6107 193.565 28.7076 193.468 28.8368C193.372 28.9338 193.308 29.0307 193.276 29.1276Z" fill="white"/>
<path d="M206.333 24.7173C206.398 24.8788 206.622 25.2181 207.007 25.7351C207.425 26.252 207.89 26.8174 208.404 27.4313C208.917 28.0452 209.399 28.643 209.848 29.2246C210.33 29.7738 210.667 30.1777 210.859 30.4362C211.212 30.8885 211.549 31.3409 211.87 31.7932C212.223 32.2132 212.544 32.6656 212.833 33.1502L213.7 34.6042C213.957 34.9273 214.181 35.2019 214.374 35.4281C214.599 35.6543 214.775 35.9612 214.904 36.3489C214.968 36.6074 215 36.7851 215 36.8821C215 37.1082 214.92 37.2698 214.759 37.3667C214.502 37.3667 214.358 37.399 214.326 37.4636C214.326 37.5606 214.262 37.6414 214.133 37.706C214.005 37.7706 213.796 37.8029 213.507 37.8029C213.251 37.8352 213.042 37.8514 212.881 37.8514C212.593 37.8514 212.223 37.8352 211.774 37.8029C211.357 37.8029 211.02 37.8514 210.763 37.9483C210.699 37.9806 210.602 38.0291 210.474 38.0937C210.346 38.1583 210.249 38.1906 210.185 38.1906C209.928 38.1906 209.736 38.1422 209.607 38.0452C209.511 37.9806 209.367 37.9321 209.174 37.8998C208.917 37.609 208.693 37.3183 208.5 37.0275C208.34 36.7044 208.147 36.3813 207.922 36.0582C207.698 35.832 207.473 35.6381 207.248 35.4766C207.023 35.2827 206.831 35.0727 206.67 34.8465C206.189 34.1357 205.691 33.441 205.178 32.7625C204.664 32.084 204.135 31.4216 203.589 30.7754C203.332 30.42 203.059 30.0969 202.77 29.8061C202.482 29.5153 202.209 29.1922 201.952 28.8368C201.695 28.5137 201.454 28.1745 201.23 27.8191C201.005 27.4313 200.78 27.0598 200.556 26.7044C200.363 26.4136 200.106 26.042 199.785 25.5897C199.464 25.105 199.111 24.6365 198.726 24.1842C198.341 23.6995 197.956 23.2472 197.57 22.8271C197.185 22.4071 196.864 22.084 196.607 21.8578C196.575 21.664 196.495 21.5186 196.367 21.4216C196.238 21.2924 196.094 21.1793 195.933 21.0824C195.869 20.9208 195.805 20.7754 195.741 20.6462C195.645 20.4847 195.596 20.3231 195.596 20.1616C195.596 19.9354 195.645 19.7254 195.741 19.5315C195.805 19.4023 195.853 19.2892 195.885 19.1922C195.885 19.063 195.917 18.9338 195.982 18.8045C196.142 18.4491 196.351 18.1099 196.607 17.7868C196.896 17.4313 197.121 17.0598 197.282 16.6721C197.346 16.5751 197.378 16.4782 197.378 16.3813C197.378 16.252 197.41 16.1389 197.474 16.042C197.538 15.7835 197.667 15.5735 197.859 15.412C198.084 15.2181 198.261 15.0081 198.389 14.7819C198.549 14.5234 198.694 14.2649 198.822 14.0065C198.983 13.7157 199.143 13.4087 199.304 13.0856C199.785 12.2779 200.283 11.5024 200.796 10.7593C201.342 9.98384 201.888 9.2084 202.433 8.43296C202.851 7.78675 203.252 7.17286 203.637 6.59128C204.054 5.97738 204.472 5.36349 204.889 4.7496C205.114 4.4588 205.354 4.11955 205.611 3.73183C205.868 3.3441 206.141 2.95638 206.43 2.56866C206.751 2.18094 207.072 1.82552 207.393 1.50242C207.714 1.17932 208.035 0.92084 208.356 0.726979C208.837 0.694669 209.158 0.807754 209.319 1.06624C209.479 1.29241 209.72 1.40549 210.041 1.40549C210.458 1.50242 210.731 1.63166 210.859 1.79321C210.988 1.95477 211.132 2.11632 211.293 2.27787C211.742 2.27787 212.095 2.35864 212.352 2.52019C212.641 2.68174 212.914 2.92407 213.17 3.24717C213.074 3.60258 212.93 3.92569 212.737 4.21648C212.544 4.47496 212.368 4.7496 212.207 5.04039C211.951 5.16963 211.758 5.34733 211.63 5.57351C211.533 5.79968 211.373 5.97738 211.148 6.10662C210.827 6.6559 210.49 7.18901 210.137 7.70598C209.784 8.19063 209.431 8.67528 209.078 9.15993C208.885 9.45073 208.677 9.70921 208.452 9.93538C208.259 10.1616 208.083 10.4039 207.922 10.6624C207.858 10.7593 207.794 10.8724 207.73 11.0016C207.698 11.0985 207.649 11.1955 207.585 11.2924C207.2 11.9063 206.783 12.4879 206.333 13.0372C205.884 13.5541 205.467 14.1357 205.082 14.7819C204.953 15.0081 204.841 15.2504 204.744 15.5089C204.68 15.7351 204.584 15.9612 204.456 16.1874C204.327 16.3813 204.135 16.6397 203.878 16.9628C203.653 17.2859 203.428 17.6414 203.204 18.0291C202.979 18.3845 202.77 18.7399 202.578 19.0953C202.417 19.4184 202.337 19.6931 202.337 19.9192C202.369 20.0808 202.562 20.4039 202.915 20.8885C203.3 21.3409 203.717 21.8417 204.167 22.391C204.648 22.9079 205.098 23.4087 205.515 23.8934C205.932 24.3457 206.205 24.6204 206.333 24.7173ZM209.511 15.8966C209.736 16.3813 209.977 16.8013 210.233 17.1567C210.33 17.2859 210.442 17.399 210.57 17.496C210.699 17.5929 210.795 17.7221 210.859 17.8837C210.923 17.9483 210.988 18.0937 211.052 18.3199C211.116 18.5137 211.18 18.6591 211.244 18.7561C211.341 19.0145 211.533 19.3053 211.822 19.6284C212.111 19.9515 212.256 20.2423 212.256 20.5008C212.256 20.6624 212.223 20.8401 212.159 21.0339C212.095 21.2278 212.047 21.4055 212.015 21.567C211.983 21.7609 211.967 21.9709 211.967 22.1971C211.967 22.391 211.902 22.5687 211.774 22.7302C211.614 22.8918 211.437 22.9887 211.244 23.021C211.052 23.0533 210.875 23.1341 210.715 23.2633C210.651 23.3279 210.554 23.441 210.426 23.6026C210.298 23.7641 210.169 23.9418 210.041 24.1357C209.912 24.3296 209.784 24.5234 209.656 24.7173C209.559 24.8788 209.511 25.0081 209.511 25.105C209.126 25.1373 208.869 25.1535 208.741 25.1535C208.644 25.1212 208.532 25.1212 208.404 25.1535C208.243 24.9919 208.067 24.8627 207.874 24.7658C207.714 24.6365 207.505 24.5234 207.248 24.4265C207.184 24.168 207.04 23.8772 206.815 23.5541C206.59 23.1987 206.398 22.9079 206.237 22.6817L205.9 22.2456C205.419 21.567 204.969 20.9208 204.552 20.3069C204.167 19.6607 203.878 18.9499 203.685 18.1745C204.295 17.7221 204.761 17.3829 205.082 17.1567C205.435 16.9305 205.804 16.7205 206.189 16.5267C206.574 16.3328 206.943 16.1551 207.296 15.9935C207.682 15.7997 208.035 15.5735 208.356 15.315C208.612 15.315 208.789 15.3312 208.885 15.3635C208.982 15.3958 209.046 15.4281 209.078 15.4604C209.11 15.4927 209.142 15.5574 209.174 15.6543C209.238 15.7189 209.351 15.7997 209.511 15.8966Z" fill="white"/>
</svg>